Trial010_GRF
version=1
nRows=30
nColumns=19
inDegrees=yes
endheader
time	ground_force_vx	ground_force_vy	ground_force_vz	ground_force_px	ground_force_py	ground_force_pz	1_ground_force_vx	1_ground_force_vy	1_ground_force_vz	1_ground_force_px	1_ground_force_py	1_ground_force_pz	ground_torque_x	ground_torque_y	ground_torque_z	1_ground_torque_x	1_ground_torque_y	1_ground_torque_z
      0.00000000	     72.70766232	    275.41587797	     -6.54990288	      0.65862572	      0.00000000	      0.32858133	    -75.05737724	    257.70379337	      7.15393456	      1.39662806	      0.00000000	      0.24367605	    -91.74673138	     23.46851242	    181.50860671	    -60.27944513	    -36.92230690	    359.67646487
      0.00400000	     76.99515333	    292.34502286	     -6.72264506	      0.65968690	      0.00000000	      0.32818367	    -79.45791861	    273.14930735	      7.66259851	      1.39627987	     -0.00000000	      0.24338353	    -97.25905259	     24.70591882	    192.97110103	    -63.80123101	    -39.24672274	    381.13454572
      0.00800000	     81.23726597	    309.09354716	     -6.89394633	      0.66062190	      0.00000000	      0.32782390	    -83.81162667	    288.45088577	      8.16822651	      1.39596376	      0.00000000	      0.24310945	   -102.70873541	     25.93331644	    204.31111694	    -67.28636552	    -41.54802427	    402.39031894
      0.01200000	     85.39522602	    325.50826747	     -7.06225770	      0.66144415	      0.00000000	      0.32749876	    -88.07754958	    303.46785909	      8.66680451	      1.39567408	      0.00000000	      0.24285015	   -108.04616237	     27.13920175	    215.42484590	    -70.70203417	    -43.80546787	    423.24749934
      0.01600000	     89.43208284	    341.44316141	     -7.22612294	      0.66216566	      0.00000000	      0.32720515	    -92.21658256	    318.06583398	      9.15453004	      1.39540577	      0.00000000	      0.24260232	   -113.22407657	     28.31258856	    226.21330617	    -74.01689070	    -45.99929662	    443.51852972
      0.02000000	     93.31347886	    356.76239969	     -7.38421012	      0.66279703	      0.00000000	      0.32694019	    -96.19228469	    332.11948712	      9.62789148	      1.39515437	      0.00000000	      0.24236297	   -118.19855823	     29.44324090	    236.58439533	    -77.20171287	    -48.11115289	    463.02848250
      0.02400000	     97.00832022	    371.34298890	     -7.53533726	      0.66334763	      0.00000000	      0.32670120	    -99.97159371	    345.51500739	     10.08373603	      1.39491591	      0.00000000	      0.24212946	   -122.92987476	     30.52187517	    246.45468126	    -80.22997640	    -50.12443783	    481.61847117
      0.02800000	    100.48933110	    385.07695587	     -7.67849124	      0.66382565	      0.00000000	      0.32648572	   -103.52541976	    358.15212221	     10.51932460	      1.39468687	      0.00000000	      0.24189943	   -127.38318199	     31.54032607	    255.75088467	    -83.07833204	    -52.02460803	    499.14848155
      0.03200000	    103.73348095	    397.87303235	     -7.81283952	      0.66423828	      0.00000000	      0.32629148	   -106.82910676	    369.94566957	     10.93237257	      1.39446413	      0.00000000	      0.24167082	   -131.52906353	     32.49167275	    264.41102506	    -85.72697639	    -53.79940385	    515.49956921
      0.03600000	    106.72228057	    409.65782389	     -7.93773476	      0.66459178	      0.00000000	      0.32611638	   -109.86275659	    380.82669978	     11.32107617	      1.39424494	      0.00000000	      0.24144181	   -135.34390314	     33.37032445	    272.38521891	    -88.15991280	    -55.43900705	    530.57540069
      0.04000000	    109.44194784	    420.37646691	     -8.05271282	      0.66489166	     -0.00000000	      0.32595848	   -112.61141658	    390.74310962	     11.68412481	      1.39402683	      0.00000000	      0.24121083	   -138.81009183	     34.17206579	    279.63613198	    -90.36510266	    -56.93612836	    544.30314229
      0.04400000	    111.88344835	    429.99279490	     -8.15748487	      0.66514273	      0.00000000	      0.32581599	   -115.06513544	    399.65982723	     12.02070005	      1.39380757	      0.00000000	      0.24097654	   -141.91607656	     34.89406412	    286.13909961	    -92.33451135	    -58.28602776	    556.63372214
      0.04800000	    114.04241937	    438.48904760	     -8.25192477	      0.66534926	      0.00000000	      0.32568723	   -117.21889634	    407.55857861	     12.33046244	      1.39358521	      0.00000000	      0.24073781	   -144.65626186	     35.53484179	    291.88193703	    -94.06405593	    -59.48647235	    567.54150855
      0.05200000	    115.91898821	    445.86516715	     -8.33605271	      0.66551505	      0.00000000	      0.32557062	   -119.07243861	    414.43727573	     12.61352755	      1.39335798	      0.00000000	      0.24049374	   -147.03077862	     36.09421759	    296.86446936	    -95.55346374	    -60.53763770	    577.02346077
      0.05600000	    117.51749796	    452.13773247	     -8.41001664	      0.66564349	     -0.00000000	      0.32546469	   -120.62998173	    420.30907370	     12.87043259	      1.39312430	      0.00000000	      0.24024361	   -149.04513701	     36.57322177	    301.09781533	    -96.80605299	    -61.44195973	    585.09781820
      0.06000000	    118.84615480	    457.33858838	     -8.47407257	      0.66573768	     -0.00000000	      0.32536801	   -121.89986662	    425.20114852	     13.10209535	      1.39288279	      0.00000000	      0.23998694	   -150.70978165	     36.97398971	    304.60346290	    -97.82844710	    -62.20394481	    591.80239981
      0.06400000	    119.91661219	    461.51322887	     -8.52856518	      0.66580043	      0.00000000	      0.32527926	   -122.89412999	    429.15324946	     13.30976682	      1.39263222	      0.00000000	      0.23972342	   -152.03956872	     37.29963912	    307.41217698	    -98.63023554	    -62.82994606	    597.19258942
      0.06800000	    120.74350738	    464.71899545	     -8.57390984	      0.66583438	      0.00000000	      0.32519714	   -123.62802817	    432.21608103	     13.49497946	      1.39237158	      0.00000000	      0.23945299	   -153.05318455	     37.55413594	    309.56278054	    -99.22359373	    -63.32791408	    601.33908286
      0.07200000	    121.34396590	    467.02315083	     -8.61057689	      0.66584200	      0.00000000	      0.32512044	   -124.11952615	    434.44956829	     13.65949232	      1.39210002	      0.00000000	      0.23917578	   -153.77252506	     37.74215359	    311.10085025	    -99.62287473	    -63.70713005	    604.32547228
      0.07600000	    121.73708892	    468.50088591	     -8.63907889	      0.66582568	      0.00000000	      0.32504802	   -124.38876724	    435.92105743	     13.80523472	      1.39181691	      0.00000000	      0.23889212	   -154.22205454	     37.86892993	    312.07736602	    -99.84418490	    -63.97792893	    606.24573947
      0.08000000	    121.94343764	    469.23331416	     -8.65996100	      0.66578771	      0.00000000	      0.32497879	   -124.45753785	    436.70350014	     13.93424983	      1.39152180	     -0.00000000	      0.23860258	   -154.42816084	     37.94012591	    312.54735165	    -99.90495494	    -64.15141998	    607.20172603
      0.08400000	    121.98452753	    469.30550292	     -8.67379435	      0.66573032	      0.00000000	      0.32491176	   -124.34874034	    436.87366635	     14.04863932	      1.39121448	      0.00000000	      0.23830791	   -154.41852234	     37.96168901	    312.56854005	    -99.82351697	    -64.23921139	    607.30064221
      0.08800000	    121.88234372	    468.80458498	     -8.68117200	      0.66565576	      0.00000000	      0.32484602	   -124.08588569	    436.51042501	     14.15051057	      1.39089496	     -0.00000000	      0.23800905	   -154.22150056	     37.93972410	    312.20009291	    -99.61869694	    -64.25314514	    606.65266970
      0.09200000	    121.65888733	    467.81798830	     -8.68270674	      0.66556622	     -0.00000000	      0.32478078	   -123.69261597	    435.69312706	     14.24192742	      1.39056351	     -0.00000000	      0.23770716	   -153.86557010	     37.88037362	    311.50140017	    -99.30943073	    -64.20504763	    605.36870618
      0.09600000	    121.33576099	    466.43181488	     -8.67902997	      0.66546395	      0.00000000	      0.32471535	   -123.19226483	    434.50011906	     14.32486547	      1.39022062	      0.00000000	      0.23740351	   -153.37879586	     37.78970868	    310.53098022	    -98.91441057	    -64.10650041	    603.55829107
      0.10000000	    120.93379994	    464.72939319	     -8.67079068	      0.66535116	      0.00000000	      0.32464918	   -122.60746260	    433.00740971	     14.40117267	      1.38986703	      0.00000000	      0.23709956	   -152.78836516	     37.67363198	    309.34549697	    -98.45176737	    -63.96863484	    601.32774384
      0.10400000	    120.47275356	    462.79002164	     -8.65865398	      0.66523009	      0.00000000	      0.32458182	   -121.95979045	    431.28750550	     14.47253591	      1.38950373	      0.00000000	      0.23679683	   -152.12018070	     37.53779336	    307.99890532	    -97.93879268	    -63.80195325	    598.77853739
      0.10800000	    119.97102032	    460.68791363	     -8.64329847	      0.66510296	      0.00000000	      0.32451299	   -121.26948674	    429.40842554	     14.54045410	      1.38913195	      0.00000000	      0.23649696	   -151.39851768	     37.38751837	    306.54173214	    -97.39170304	    -63.61617872	    596.00592081
      0.11200000	    119.44543723	    458.49134863	     -8.62541201	      0.66497197	      0.00000000	      0.32444254	   -120.55520677	    427.43290023	     14.60621787	      1.38875311	      0.00000000	      0.23620159	   -150.64574683	     37.22774964	    305.02049567	    -96.82544770	    -63.42013440	    593.09779796
      0.11600000	    118.91112346	    456.26202752	     -8.60568579	      0.66483925	      0.00000000	      0.32437047	   -119.83383595	    425.41775301	     14.67089642	      1.38836886	      0.00000000	      0.23591236	   -149.88212285	     37.06300101	    303.47726257	    -96.25355985	    -63.22165301	    590.13386100
